<svg xmlns="http://www.w3.org/2000/svg" viewBox="0 0 512 512">
  <defs>
    <linearGradient id="bg" x1="0%" y1="0%" x2="100%" y2="100%">
      <stop offset="0%" stop-color="#4361ee"/>
      <stop offset="100%" stop-color="#00c48c"/>
    </linearGradient>
  </defs>
  <rect width="512" height="512" rx="120" fill="#07080d"/>
  <rect x="44" y="44" width="424" height="424" rx="100" fill="url(#bg)" opacity="0.14"/>
  <path d="M162 138h98c54 0 90 27 90 74 0 32-16 55-43 66 35 9 57 35 57 74 0 56-43 88-104 88H162V138zm90 122c28 0 43-13 43-36 0-22-15-34-43-34h-33v70h33zm11 128c33 0 50-15 50-42 0-26-18-40-50-40h-44v82h44z" fill="#fff"/>
</svg>
